<svg height="512" viewBox="0 0 88 88" width="512" xmlns="http://www.w3.org/2000/svg"><g id="Color_Pallete" data-name="Color Pallete"><circle cx="40" cy="73" r="6"/><circle cx="40" cy="15" r="6"/><path d="m55.7568 59.7573a6 6 0 1 0 8.4864 0 6.008 6.008 0 0 0 -8.4864 0z"/><path d="m71.3652 14.4014a41.72 41.72 0 0 0 -30.7461-13.4014 42.1863 42.1863 0 0 0 -31.4462 14.1714 17.2886 17.2886 0 0 0 -1.001 21.2686 33.313 33.313 0 0 0 7.7666 7.5352c5.9345 4.583 10.622 8.2026 6.0088 20.6777l-.0586.1411a15.8043 15.8043 0 0 0 1.0156 13.8335 16.0378 16.0378 0 0 0 11.63 7.9322 42.273 42.273 0 0 0 6.0917.4403q1.6332 0 3.2705-.125c20.8235-1.5923 37.5908-18.7363 39.0035-39.8794a43.0068 43.0068 0 0 0 -11.5348-32.5942zm-17.0224 3.9419a7.9961 7.9961 0 1 1 0 11.3134 8.01 8.01 0 0 1 0-11.3134zm-28.6856 11.3134a8 8 0 1 1 0-11.3134 7.9754 7.9754 0 0 1 0 11.3134zm14.3428 51.3433a8 8 0 1 1 8-8 8.0092 8.0092 0 0 1 -8 8zm0-58a8 8 0 1 1 8-8 8.0092 8.0092 0 0 1 -8 8zm25.6572 46.6567a8 8 0 1 1 0-11.3134 7.9754 7.9754 0 0 1 0 11.3134zm3.3428-17.6567a8 8 0 1 1 8-8 8.0092 8.0092 0 0 1 -8 8z"/><path d="m20 18.0029a5.9971 5.9971 0 1 0 4.2432 1.7544 5.9832 5.9832 0 0 0 -4.2432-1.7544z"/><circle cx="69" cy="44" r="6"/><path d="m64.2432 28.2427a6 6 0 1 0 -8.4864 0 6.008 6.008 0 0 0 8.4864 0z"/></g></svg>