<svg height="512" viewBox="0 0 88 88" width="512" xmlns="http://www.w3.org/2000/svg"><g id="Paint_brush" data-name="Paint brush"><path d="m26.3066 61.791c-3.9795-3.6279-10.7031-5.1553-15.3232-.8389-7.7646 7.253-8.8355 24.27-8.8774 24.99a1 1 0 0 0 1.7309.7383c4.9741-5.3526 8.7051-4.9366 12.311-4.53 3.5962.4014 7.3121.8193 11.3555-4.4024 4.981-6.4316 2.4683-12.6162-1.1968-15.957z"/><path d="m29.451 47.497 11.143 11.443 5.636-4.948-11.96-12.283z"/><path d="m82.3477 4.6572a11.9186 11.9186 0 0 0 -8.5972-3.6572h-.0005a11.8892 11.8892 0 0 0 -8.5786 3.6377c-.229.2353-.4473.4814-.648.7285l-28.9674 34.7975 12.1785 12.5072 33.9227-29.7842a12.4157 12.4157 0 0 0 4.2285-8.9394 12.6491 12.6491 0 0 0 -3.538-9.2901z"/><path d="m21.6088 56.918a15.6448 15.6448 0 0 1 6.0455 3.3955 14.2793 14.2793 0 0 1 4.0716 6.413l7.3641-6.4652-10.925-11.2191z"/></g></svg>